# xmcd CD database file
#
# Track frame offsets:
#	150
#	21492
#	42098
#	60081
#	79926
#	100832
#	132968
#	150468
#	174952
#	194801
#
# Disc length: 2830 seconds
#
# Revision: 1
# Processed by: cddbd v1.5.2PL0 Copyright (c) Steve Scherf et al.
# Submitted via: CDex 1.70beta2
#
DISCID=790b0c0a
DTITLE=Ivri Leader - BeKetsev Achid Btnuut shel Haguf
DYEAR=2008
DGENRE=Other
TTITLE0=Rak Tevakesh
TTITLE1=Mitorer
TTITLE2=Tsel Shacor
TTITLE3=Aluf HaOlam
TTITLE4=HadRrachim HaArukot
TTITLE5=Chashuv Li
TTITLE6=Ani Yodea Ma Ata Tsarich
TTITLE7=BeKetsev Achid Btnuut shel Haguf
TTITLE8=BeYachad Mefached
TTITLE9=Samim Lev
EXTD=YEAR: 2008
EXTT0=
EXTT1=
EXTT2=
EXTT3=
EXTT4=
EXTT5=
EXTT6=
EXTT7=
EXTT8=
EXTT9=
PLAYORDER=
